<?xml version="1.0" encoding="UTF-8" standalone="no"?>
<!-- Created with Inkscape (http://www.inkscape.org/) -->

<svg
   xmlns:dc="http://purl.org/dc/elements/1.1/"
   xmlns:cc="http://creativecommons.org/ns#"
   xmlns:rdf="http://www.w3.org/1999/02/22-rdf-syntax-ns#"
   xmlns:svg="http://www.w3.org/2000/svg"
   xmlns="http://www.w3.org/2000/svg"
   xmlns:sodipodi="http://sodipodi.sourceforge.net/DTD/sodipodi-0.dtd"
   xmlns:inkscape="http://www.inkscape.org/namespaces/inkscape"
   version="1.1"
   id="svg9710"
   width="278"
   height="400"
   viewBox="0 0 278 400"
   sodipodi:docname="labyverty99question.svg"
   inkscape:version="0.92.4 (5da689c313, 2019-01-14)">
  <metadata
     id="metadata9716">
    <rdf:RDF>
      <cc:Work
         rdf:about="">
        <dc:format>image/svg+xml</dc:format>
        <dc:type
           rdf:resource="http://purl.org/dc/dcmitype/StillImage" />
        <dc:title></dc:title>
      </cc:Work>
    </rdf:RDF>
  </metadata>
  <defs
     id="defs9714" />
  <sodipodi:namedview
     pagecolor="#ffffff"
     bordercolor="#666666"
     borderopacity="1"
     objecttolerance="10"
     gridtolerance="10"
     guidetolerance="10"
     inkscape:pageopacity="0"
     inkscape:pageshadow="2"
     inkscape:window-width="3240"
     inkscape:window-height="2035"
     id="namedview9712"
     showgrid="false"
     inkscape:zoom="4"
     inkscape:cx="52.11064"
     inkscape:cy="210.06482"
     inkscape:window-x="-13"
     inkscape:window-y="-13"
     inkscape:window-maximized="1"
     inkscape:current-layer="svg9710" />
  <g
     id="g10273"
     transform="translate(0,0.35355339)"
     style="stroke:#000000;stroke-opacity:1">
    <g
       style="fill:#000000;fill-opacity:1;stroke:#000000;stroke-opacity:1"
       id="g10269">
      <path
         style="fill:#000000;fill-opacity:1;stroke:#000000;stroke-width:1.13385832;stroke-miterlimit:3;stroke-dasharray:none;stroke-opacity:1"
         d="m 7.8417969,10.730469 v 94.158201 94.15821 H 6.4472656 5.0527344 v 3.2246 3.22657 h 3.4863281 3.4882815 v -3.22657 -3.2246 H 10.457031 8.8886719 v -7.93555 -7.9336 h 4.5332031 4.533203 v -0.52148 -0.52344 H 13.421875 8.8886719 v -8.45703 -8.45703 h 9.0664061 9.066406 v -4.5332 -4.53321 h 8.980469 8.980469 V 142.63867 129.125 h 4.533203 4.533203 v -5.05664 -5.05664 H 35.478516 16.908203 v 0.52344 0.52343 h 8.980469 8.980469 v 13.51172 13.51367 h 0.521484 0.521484 l 0.04492,-13.46875 0.04492,-13.4707 h 8.457031 8.457032 v 3.92383 3.92383 l -4.490235,0.0469 -4.490234,0.0449 v 13.51172 13.50977 H 30.421875 16.908203 v 0.52344 0.52343 h 4.447266 4.445312 v 4.01172 4.01172 l -8.412109,-0.0449 -8.4140626,-0.0449 -0.044922,-12.94727 -0.042969,-12.94726 h 4.5332032 4.535156 v -0.60938 -0.61133 H 13.421875 8.8886719 v -3.92187 -3.92383 h 8.4570311 8.455078 v 8.45703 8.45703 h -4.445312 -4.447266 v 0.52149 0.52343 h 5.056641 5.05664 v -9.5 -9.50195 l -9.023437,-0.0449 -9.0234376,-0.0449 -0.044922,-12.94727 -0.042969,-12.94726 h 4.5332032 4.535156 V 97.564453 93.03125 h 18.046875 18.046875 v -0.523438 -0.523437 h -4.533203 -4.533203 v -8.457031 -8.457032 h 4.533203 4.533203 V 66.003906 56.9375 h 4.533203 4.533203 v -4.535156 -4.535156 l 8.414063,0.04492 8.414062,0.04492 0.04492,4.490235 0.04687,4.490234 h 0.519532 0.521484 v -5.056641 -5.05664 H 67.5625 54.048828 V 33.310547 19.796875 h -5.05664 -5.056641 v 0.519531 0.521485 l 4.490234,0.04492 4.490235,0.04688 0.04492,13.470703 0.04492,13.46875 h 4.445313 4.445312 v 4.011718 4.009766 h -4.447265 -4.447266 v 8.980469 8.978515 H 48.46875 43.935547 v 9.06836 9.066406 H 30.425781 16.914062 l -0.04492,4.490234 -0.04687,4.490231 H 12.898438 8.9746094 L 8.9296875,88.017578 8.8867188,75.070312 h 9.0664062 9.068359 V 74.460938 73.849609 H 22.488281 17.955078 V 60.859375 47.869141 h 4.533203 4.533203 v -9.501953 -9.503907 h -5.05664 -5.056641 v 5.056641 5.05664 h 0.523438 0.523437 v -4.533203 -4.533203 h 3.923828 3.921875 v 8.457032 8.457031 H 21.355469 16.908203 V 60.337891 73.849609 H 12.898438 8.8886719 V 42.900391 11.951172 H 21.878906 34.869141 v 3.921875 3.923828 h -8.980469 -8.980469 v 0.523437 0.523438 h 8.980469 8.980469 v 4.533203 4.533203 h 4.533203 4.535156 l -0.04492,17.480469 -0.04297,17.480469 -8.414062,0.04492 -8.414063,0.04492 V 60.949219 56.9375 h 4.447266 4.445312 v -9.503906 -9.501953 h -0.521484 -0.523437 v 8.978515 8.980469 h -4.533203 -4.533204 v 5.056641 5.05664 h 4.533204 4.533203 v 8.457032 8.457031 h -8.980469 -8.980469 v 0.523437 0.523438 h 9.503906 9.501953 v -8.980469 -8.980469 h 4.535157 4.533203 V 47.4375 28.869141 l -4.490234,-0.04492 -4.490235,-0.04687 -0.04492,-8.414063 -0.04492,-8.412109 H 53.4375 70.962891 v 4.445312 4.447266 h 0.523437 0.523438 V 16.396484 11.951172 H 85 97.990234 v 17.958984 17.958985 h 0.521485 0.521484 l 0.04492,-8.935547 0.04492,-8.935547 h 8.457033 8.45703 l 0.0469,4.490234 0.0449,4.488281 h 0.52148 0.51953 v -4.533203 -4.533203 h 8.45703 8.45703 v 4.533203 4.533203 h 5.05664 5.05665 v -4.533203 -4.533203 h 8.97656 8.97656 l 0.0469,-4.490234 0.0469,-4.490234 h 8.45703 8.45508 v 17.4375 17.435546 l -18.00195,0.04492 -18.00391,0.04492 v 5.056641 5.054687 h 4.44727 4.44531 v 8.457032 8.457031 H 138.5293 125.01562 v 0.523437 0.523438 h 4.53516 4.5332 v 4.533203 4.533203 h 4.53321 4.5332 v 31.03711 31.03711 h -8.45703 -8.45703 v -4.5332 -4.53321 h -4.53321 -4.5332 v -8.45703 -8.45703 h 4.5332 4.53321 v -0.52344 -0.52344 H 107.58008 88.921875 v 4.44727 4.44727 H 85 81.076172 v -8.98047 -8.98047 h -0.523438 -0.523437 v 8.98047 8.98047 h -4.533203 -4.533203 v 14.12304 14.12305 h 4.533203 4.533203 v 3.92383 3.92383 h -4.533203 -4.533203 v 4.5332 4.5332 h -3.923829 -3.923828 v -4.5332 -4.5332 h -0.609375 -0.609375 v 9.0664 9.06641 h -3.923828 -3.923828 v -4.5332 -4.53321 h -5.05664 -5.056641 v 0.51953 0.52149 l 4.490234,0.0449 4.490235,0.0469 v 3.92383 3.92383 l -4.490235,0.0449 -4.490234,0.0469 v 0.52148 0.51953 h 13.513672 13.513672 v 8.98047 8.97852 h 0.523437 0.523438 v -4.44531 -4.44727 h 13.511718 13.513672 v -5.05664 -5.05664 h -0.521484 -0.523438 v 4.44726 4.44532 H 85 72.009766 v -4.44532 -4.44726 H 67.5625 63.117188 v -4.00977 -4.01172 h 4.443359 4.443359 l 0.04492,-4.48828 0.04687,-4.49023 8.414063,-0.0449 8.412109,-0.0469 v 4.01367 4.01172 h -4.445313 -4.447265 v 5.05664 5.05664 h 5.056641 5.05664 v -0.52343 -0.52344 h -4.533203 -4.533203 v -4.00977 -4.01172 h 4.533203 4.533203 v -4.5332 -4.5332 h 4.447266 4.445312 v -0.52344 -0.52344 h -8.978515 -8.980469 v -3.92187 -3.92383 h 4.533203 4.533203 v -0.52344 -0.52343 h -4.533203 -4.533203 v -4.00977 -4.00977 h 4.533203 4.533203 v -0.52343 -0.52344 h -4.533203 -4.533203 v -4.00977 -4.01172 h 4.533203 4.533203 v -0.52148 -0.52344 h -5.054687 -5.054688 l -0.04492,9.02344 -0.04492,9.02344 h -3.923828 -3.923828 l -0.04492,-12.94727 -0.04492,-12.94726 h 9.06836 9.068359 v -4.53321 -4.5332 h 3.923828 3.923828 v 4.5332 4.53321 h 0.523438 0.521484 v -4.53321 -4.5332 h 8.544924 8.54297 v 3.92383 3.92187 h -4.53321 -4.5332 v 0.61133 0.60938 h 4.5332 4.53321 v 8.98047 8.98046 h 0.52343 0.52344 v -4.5332 -4.53516 h 3.92383 3.92187 v 4.53516 4.5332 h 4.53516 4.5332 v 4.00977 4.00977 h -8.98046 -8.98047 v 0.52343 0.52344 h 8.98047 8.98046 v 13.51367 13.51367 h 4.53321 4.5332 v 3.92383 3.92188 h -4.5332 -4.53321 v 9.58984 9.5918 h 4.53711 4.53516 l -0.0469,3.96679 -0.0469,3.9668 -4.48828,0.0449 -4.49024,0.0469 v 0.52148 0.51953 h 9.58985 9.58984 v -4.53515 -4.53516 l 12.94727,0.0449 12.94726,0.0449 v 3.92382 3.92383 l -4.49023,0.0449 -4.49024,0.0469 v 0.51953 0.52148 h 4.53321 4.5332 v 4.44532 4.44726 h 0.52344 0.52344 v -4.44726 -4.44532 h 3.92382 3.92188 v 8.97852 8.98047 h 0.61133 0.60937 v -4.53321 -4.5332 h 3.92383 3.92383 v 4.5332 4.53321 h 4.53515 4.53711 l -0.0469,3.96679 -0.0469,3.9668 -4.49023,0.0469 -4.48828,0.0469 v 4.44336 4.44336 h -4.53516 -4.5332 v 4.5332 4.53321 h -3.92383 -3.92187 v -4.53321 -4.5332 h -0.52344 -0.52344 v 4.5332 4.53321 h -4.00976 -4.01172 v -4.53321 -4.5332 h -0.52149 -0.52344 v 4.5332 4.53321 h -4.01171 -4.00977 v -4.53321 -4.5332 h -4.44531 -4.44727 v -4.44727 -4.44531 h -0.60937 -0.61133 v 5.05664 5.05664 h 4.5332 4.53321 v 4.44532 4.44336 l 9.02343,0.0449 9.02344,0.0469 v 3.92188 3.92383 l -4.48828,0.0469 -4.49024,0.0469 v 14.02929 14.03125 l 4.49024,0.0469 4.48828,0.0469 v 3.92188 3.92383 l -9.02344,0.0449 -9.02343,0.0449 v 4.44531 4.44531 h -3.92188 -3.92383 v -4.44726 -4.44531 h -0.60937 -0.61133 v 4.44531 4.44726 h -3.92383 -3.92187 v -4.44726 -4.44531 h -0.52344 -0.52344 v 4.44531 4.44726 h -4.00977 -4.01171 v -4.44726 -4.44531 h -8.97852 -8.98047 v -4.01172 -4.00977 h 4.5332 4.53321 v -0.52344 -0.52343 h -9.58985 -9.58984 v 9.58984 9.5918 h 4.5332 4.53321 v 3.92187 3.92383 h -4.53321 -4.5332 v 0.52344 0.52344 h 9.58984 9.58985 v -0.52344 -0.52344 h -4.53321 -4.5332 v -4.5332 -4.53321 h -4.5332 -4.5332 v -8.46093 -8.45899 l 3.96679,0.0469 3.9668,0.0469 0.0449,4.49024 0.0469,4.48828 h 4.44336 4.44335 v 4.53515 4.53321 h 0.61133 0.60938 v -4.53321 -4.53515 h 3.92383 3.92382 v 4.53515 4.53321 h 8.97852 8.98047 v 3.92187 3.92383 h -4.44531 -4.44727 v 0.52344 0.52344 h 4.44727 4.44531 v 4.5332 4.5332 h 0.61133 0.60937 v -4.53515 -4.53516 l 8.41406,0.0449 8.41211,0.0449 0.0469,3.9668 0.0469,3.9668 h -4.53711 -4.5371 v 5.05664 l 0.002,5.05664 h 5.05664 5.05664 v -0.51953 -0.51953 l -4.49023,-0.0469 -4.49024,-0.0469 v -3.92383 -3.92188 l 9.02344,-0.0469 9.02344,-0.0449 v -0.52149 -0.52148 h -4.53711 -4.53711 l 0.0469,-3.9668 0.0469,-3.9668 4.49023,-0.0469 4.49024,-0.0449 v -0.52149 -0.51953 h -13.51368 -13.51367 v -3.92383 -3.92187 h 13.51367 13.51368 v -0.61133 -0.60938 h -9.06641 -9.06836 v -3.92382 -3.92383 h 9.06836 9.06641 v -4.53321 -4.5332 h 3.92382 3.92188 v 4.5332 4.53321 h 0.61133 0.60937 v -5.05664 -5.05664 h -4.5332 -4.5332 v -4.00977 -4.00976 h 4.5332 4.5332 v -0.52344 -0.52344 h -4.5332 -4.5332 v -3.92383 -3.92187 h 8.45703 8.45703 v 4.44531 4.44727 h 0.52148 0.52149 l 0.0449,-13.47071 0.0449,-13.4707 h 3.92383 3.92187 l 0.0469,9.02344 0.0449,9.02539 h 4.53125 4.53125 v 3.92187 3.92383 h -4.5332 -4.53321 v 0.52344 0.52344 h 8.98047 8.97852 v 9.0664 9.06641 h 9.06836 9.0664 v 3.92383 3.92382 h -4.5332 -4.5332 v 0.60938 0.61133 h 14.03711 14.03515 v -0.61133 -0.60938 h -4.44531 -4.44726 v -8.98046 -8.98047 h -0.60938 -0.61133 v 8.98047 8.98046 h -3.92187 -3.92383 v -8.98046 -8.98047 h -4.5332 -4.53516 v -4.53321 -4.5332 h -0.52148 -0.52344 v 5.05274 5.05468 l 4.49023,0.0469 4.49024,0.0469 v 3.92188 3.92383 h -8.45703 -8.45704 l -0.0449,-12.94727 -0.0449,-12.94727 h 4.53516 4.5332 v -0.51953 -0.51953 l -4.48828,-0.0469 -4.49024,-0.0469 v -3.92187 -3.92383 h 8.45704 8.45703 l 0.0449,4.49023 0.0469,4.49024 h 0.51953 0.52149 v -4.53516 -4.5332 h 3.92187 3.92383 v 4.5332 4.53516 h 0.61133 0.60938 v -4.53516 -4.5332 h 4.44726 4.44531 v -5.05664 -5.05664 h -0.52343 -0.52149 v 4.5332 4.53516 h -8.45703 -8.45703 v -4.01172 -4.00977 h 4.5332 4.53321 v -8.98047 -8.98047 h 4.44726 4.44531 v -5.05664 -5.05664 h -0.52343 -0.52149 v 4.53516 4.5332 h -3.92383 -3.92382 v -4.5332 -4.53516 h -9.07032 -9.07031 l 0.0469,-3.96679 0.0469,-3.9668 4.49024,-0.0449 4.49023,-0.0469 v -0.52148 -0.51953 h -9.58984 -9.5918 v 0.51953 0.52148 l 4.49023,0.0469 4.49024,0.0449 0.0469,4.49023 0.0469,4.49024 h 8.97656 8.97656 v 4.00976 4.01172 h -4.44531 -4.44727 v 0.52344 0.52148 h 4.44727 4.44531 v 8.45704 8.45703 h -4.44336 -4.44336 l -0.0469,4.49023 -0.0449,4.49024 -3.96875,0.0469 -3.9668,0.0469 v -4.53711 -4.53711 h -0.52148 -0.52344 v 4.5332 4.53516 h -4.53321 -4.53515 v 8.97851 8.98047 h -3.92188 -3.92382 v -4.44336 -4.44336 l -4.49024,-0.0469 -4.49023,-0.0469 -0.0449,-9.02344 -0.0449,-9.02343 h -5.05468 -5.05469 v 4.5332 4.53516 h -4.5332 -4.53516 v 0.52148 0.52344 h 4.53516 4.5332 v 4.01172 4.00976 h -8.97852 -8.97851 l -0.0449,8.93555 -0.0449,8.9375 -3.96679,0.0469 -3.9668,0.0469 v -12.99414 -12.99414 h 4.5332 4.53321 v -4.5332 -4.53321 h 4.5332 4.5332 v -4.44726 -4.44532 h 12.99024 12.99023 v 8.98047 8.97852 h 0.52344 0.52344 v -8.97852 -8.98047 h 3.92382 3.92188 v 4.44532 4.44726 h 0.52344 0.52343 v -8.98047 -8.97851 h 4.00977 4.01172 v 4.5332 4.5332 h 5.05664 5.05664 v -0.61132 -0.60938 h -4.5332 -4.53516 v -4.44727 -4.44531 h -8.97852 -8.98046 v -4.00976 -4.01172 h 4.44726 4.44531 v -0.52344 -0.52148 h -4.44531 -4.44726 v -4.53516 -4.5332 h -0.52344 -0.52344 v 9.58984 9.5918 h 4.44727 4.44531 v 3.92187 3.92383 H 211.24023 198.25 v -3.92383 -3.92187 h 4.5332 4.53516 v -18.57031 -18.57032 h -8.98047 -8.98047 v -4.01172 -4.00976 h 8.98047 8.98047 v -27.0293 -27.03125 l 3.9668,0.0469 3.96679,0.0469 0.043,18.00391 0.0449,18.0039 h 0.52344 0.52149 v -4.5332 -4.53516 h 4.44335 4.44336 l 0.0469,-4.48828 0.0469,-4.49023 h 8.45704 8.45507 l 0.0469,4.49023 0.0469,4.48828 h 0.51953 0.52149 v -5.05664 -5.05664 h -9.5918 -9.58984 v 4.53516 4.5332 h -3.92188 -3.92382 v -12.99023 -12.99024 h 3.92382 3.92188 v 4.53321 4.5332 h 5.05664 5.05664 v -0.51953 -0.52149 l -4.49023,-0.0449 -4.48829,-0.0469 -0.0469,-4.49024 -0.0469,-4.49023 h -4.44336 -4.44335 v -8.45703 -8.45703 h 3.92382 3.92188 v 4.44726 4.44531 h 0.52344 0.52343 v -4.44531 -4.44726 h 4.53321 4.5332 v -4.53321 -4.5332 h 4.01172 4.00976 v 4.5332 4.53321 h 0.52344 0.52344 v -9.06641 -9.06641 h 3.92187 3.92383 v 9.06641 9.06641 h 0.61133 0.60938 v -4.53321 -4.5332 h 3.92382 3.92188 v 8.45703 8.45703 h -4.5332 -4.53321 v 0.52344 0.52148 h 4.53321 4.5332 v 4.53516 4.5332 h 0.52344 0.52343 v -14.03711 -14.03711 h -4.44531 -4.44726 v -9.0664 -9.06641 h -0.60938 -0.61133 v 4.53321 4.5332 h -4.44336 -4.44336 l -0.0469,4.49023 -0.0469,4.49024 -4.48828,0.0449 -4.49023,0.0469 v 4.44336 4.44336 h -4.01172 -4.00977 v -4.44531 -4.44727 h -0.52343 -0.52344 v 4.44727 4.44531 h -8.45508 -8.45703 v -3.92187 -3.92383 h 4.5332 4.53321 v -0.51953 -0.52149 l -4.49024,-0.0469 -4.49023,-0.0449 -0.0469,-3.9668 -0.0469,-3.9668 h 13.51757 13.51563 v -0.52343 -0.52344 h -8.97852 -8.98046 v -4.00977 -4.01172 h 4.44531 4.44726 v -0.52343 -0.52149 h -4.44726 -4.44531 v -3.92383 -3.92382 h 4.44531 4.44726 v -0.52344 -0.52149 h -4.44726 -4.44531 v -4.535152 -4.533203 h -4.53321 -4.5332 V 87.451172 82.917969 H 202.7832 198.25 v -3.923828 -3.923829 h 8.54492 8.54297 v 4.447266 4.447266 h 4.9707 4.96875 v -0.523438 -0.523437 h -4.44726 -4.44531 V 78.384766 73.851562 H 207.31836 198.25 v -3.923828 -3.923828 h 9.06836 9.06641 v -0.521484 -0.521484 l -9.02344,-0.04492 -9.02344,-0.04492 v -3.923828 -3.923828 l 4.48633,-0.04492 4.48828,-0.04687 0.0449,-4.488282 0.0469,-4.486328 8.41406,-0.04492 8.41211,-0.04492 v 4.011718 4.011719 h -4.44531 -4.44727 v 0.523437 0.523438 h 4.9668 4.96679 l 0.0469,-4.490234 0.0469,-4.490235 4.48829,-0.04687 4.49023,-0.04687 v -4.964843 -4.966797 h -0.52344 -0.52148 v 4.445312 4.447266 h -13.51367 -13.51368 v 4.533203 4.533203 h -4.5332 -4.5332 v 8.980469 8.980468 h -3.92383 -3.92383 v -4.447265 -4.447266 h -0.60937 -0.61133 v 5.056641 5.05664 h 4.5332 4.53516 v 3.923829 3.923828 h -8.98047 -8.98047 v 0.523437 0.523438 h 8.98047 8.98047 v 4.533203 4.533203 h 0.51953 0.51953 l 0.0469,-4.490234 0.0469,-4.490235 h 3.92383 3.92187 v 8.457031 8.457028 l -4.49023,0.0469 -4.48828,0.0469 v 4.44336 4.44336 h -3.92383 -3.92383 v -4.44726 -4.44532 h -0.60937 -0.61133 v 8.97852 8.98047 h -3.92383 -3.92187 v -4.5332 -4.53321 h -4.53321 -4.53515 v -3.92383 -3.92382 h 4.53515 4.53321 V 97.564453 93.03125 h 4.5332 4.5332 V 92.507812 91.984375 H 184.30469 179.25 l -0.0469,4.490234 -0.0449,4.490231 -4.49023,0.0469 -4.49024,0.0469 v 9.5 9.5 h 0.51954 0.51953 l 0.0469,-4.49023 0.0469,-4.49024 h 3.92383 3.92187 l 0.0469,9.02344 0.0449,9.02344 h 5.05468 5.05469 v -0.52344 -0.52344 h -4.5332 -4.5332 v -4.00976 -4.00977 h 8.98046 8.97852 v -0.52343 -0.52344 h -4.44531 -4.44727 v -4.00977 -4.01172 h 8.98047 8.98047 v -0.52343 -0.52149 H 202.7832 198.25 v -3.92383 -3.92382 h 4.5332 4.53516 v -4.537113 -4.537109 l 3.9668,0.04687 3.96679,0.04688 v 12.904292 12.9043 l -4.48828,0.0449 -4.48633,0.0469 -0.0469,4.48633 -0.0469,4.48828 -4.49023,0.0469 -4.48828,0.0449 v 0.52149 0.51953 h 4.5332 4.5332 v 3.92383 3.92187 h -13.51367 -13.51367 v 4.53516 4.5332 h -4.00976 -4.00977 v -8.98047 -8.98047 h -0.52344 -0.52344 v 9.5 9.5 l 4.49024,0.0469 4.49023,0.0469 v 8.45703 8.45703 l -4.49023,0.0469 -4.49024,0.0449 v 0.52149 0.51953 h 4.53321 4.5332 v 3.92383 3.92187 h -4.5332 -4.53321 v 0.52344 0.52344 h 5.05665 5.05664 v -4.44531 -4.44727 h 3.92382 3.92188 v 12.99023 12.99024 h -3.92188 -3.92382 v -4.5332 -4.53321 h -5.05664 -5.05665 v 0.51953 0.51954 l 4.49024,0.0469 4.49023,0.0469 v 3.92383 3.92188 h -8.45703 -8.45703 l -0.0469,-4.48828 -0.0469,-4.49024 h -5.05273 -5.05469 v 0.52344 0.52148 h 4.5332 4.53516 v 4.01172 4.00977 h -4.53516 -4.5332 v 0.52344 0.52343 h 4.5332 4.53516 v 4.53321 4.5332 h 0.52148 0.52344 v -4.5332 -4.53321 h 4.01172 4.00976 v 8.97852 8.98047 h 0.52344 0.52344 v -8.98047 -8.97852 h 8.45508 8.45703 v 3.92188 3.92383 h -4.44531 -4.44727 v 0.61132 0.60938 h 5.05664 5.05664 v -4.5332 -4.53321 h 3.92383 3.92383 v 4.53321 4.5332 h 0.52148 0.52344 v -5.05664 -5.05664 h -4.44531 -4.44727 v -12.99024 -12.99023 h 3.92383 3.92383 v 8.98047 8.97851 h 0.52148 0.52344 v -9.50195 -9.5039 h -8.97852 -8.98046 v -4.00977 -4.00977 h 4.5332 4.5332 v -0.52343 -0.52344 h -4.5332 -4.5332 v -8.45703 -8.45703 h 3.92382 3.92188 v 4.44726 4.44531 h 0.61133 0.60937 v -4.44531 -4.44726 h 3.92383 3.92383 v 8.98047 8.98046 h 0.52148 0.52344 v -8.98046 -8.98047 h 4.01172 4.00976 v 4.44726 4.44531 h 0.52344 0.52344 v -4.44531 -4.44726 h 4.01172 4.01172 l -0.0449,8.41406 -0.0449,8.41211 -4.49023,0.0469 -4.49024,0.0469 v 27.02344 27.02343 h -9.0664 -9.06836 v 5.05664 5.05664 h 4.5332 4.53516 v 4.53516 4.5332 h 0.51953 0.51953 l 0.0469,-4.49023 0.0469,-4.49023 3.9668,-0.0469 3.96679,-0.0469 v 12.9961 12.99805 l -3.96679,-0.0469 -3.9668,-0.0469 -0.0469,-4.49024 -0.0469,-4.49023 h -4.44336 -4.44336 v -4.44532 -4.44726 h -4.5332 -4.5332 v -9.06641 -9.06836 H 179.77148 179.25 l -0.0469,4.49024 -0.0449,4.49023 -12.94726,0.0449 -12.94727,0.0449 v -4.01172 -4.01172 h 4.44727 4.44531 v -0.52344 -0.52344 h -5.05664 -5.05664 v 9.07032 9.07031 l -3.87891,-0.0469 -3.88086,-0.0469 -0.0449,-4.48633 -0.0469,-4.48633 -4.48829,-0.0469 -4.48632,-0.0469 -0.0449,-8.41211 -0.0449,-8.41406 h 4.01172 4.01172 v 4.44727 4.44531 h 0.52344 0.52344 v -4.44531 -4.44727 h 4.5332 4.5332 v -0.60938 -0.61132 h -4.5332 -4.5332 v -4.44336 -4.44336 l -4.49024,-0.0469 -4.49023,-0.0469 v -3.92188 -3.92383 l 4.48632,-0.0469 4.48829,-0.0469 0.0469,-4.48633 0.0449,-4.48633 8.9375,-0.0449 8.93555,-0.0469 v -0.52148 -0.52149 h -4.44531 -4.44727 v -3.92187 -3.92383 h 4.44727 4.44531 v -0.52344 -0.52343 h -4.44531 -4.44727 V 150.57227 136.9707 h -0.60937 -0.61133 v 18.04688 18.04687 h -4.44531 -4.44727 v 4.53711 4.53711 l -3.9668,-0.0469 -3.96679,-0.0469 -0.0449,-8.41211 -0.0449,-8.41406 h 4.53516 4.53516 v -0.51953 -0.52149 l -4.49024,-0.0449 -4.49023,-0.0469 v -3.92383 -3.92383 l 4.49023,-0.0469 4.49024,-0.0449 V 124.06836 91.990234 l -4.49024,-0.04687 -4.49023,-0.04492 v -3.923829 -3.923828 l 8.41406,-0.04492 8.41211,-0.04492 v 13.515624 13.513668 h 0.61133 0.60937 v -4.44531 -4.44726 h 3.92383 3.92188 v 8.45703 8.45703 h -4.53321 -4.5332 v 5.05664 5.05664 h 4.5332 4.53321 v 13.51367 13.51367 h 5.05664 5.05664 v -0.52148 -0.51953 l -4.48828,-0.0469 -4.49024,-0.0469 -0.0449,-13.46875 -0.0449,-13.47071 h -4.44532 -4.44531 v -4.00976 -4.00977 h 4.44727 4.44531 v -9.5039 -9.50196 h -4.44531 -4.44727 v -8.544918 -8.542968 h 3.92383 3.92188 v 4.533203 4.533203 h 0.52343 0.52344 v -5.056641 -5.05664 h -4.44531 -4.44727 v -8.976563 -8.978515 l -4.49023,-0.04492 -4.49024,-0.04687 -0.0469,-3.966797 -0.0469,-3.966797 h 8.46094 8.45899 v 9.066406 9.066406 h 4.53515 4.5332 v 8.980469 8.980469 h 0.52344 0.52149 v -8.980469 -8.980469 h 4.53515 4.53321 v -5.05664 -5.054688 h -5.05664 -5.05665 v 0.521485 0.523437 h 4.53321 4.5332 v 3.923828 3.923828 h -8.54492 -8.54688 l 0.0469,-8.414062 0.0449,-8.414062 13.55664,-0.04297 13.55664,-0.04492 v -0.523438 -0.521484 h -4.5332 -4.5332 v -4.009766 -4.011718 h 8.97851 8.98047 v -0.521485 -0.523437 h -4.44531 -4.44727 v -3.923828 -3.923829 h 4.44727 4.44531 v -0.521484 -0.523437 h -5.05664 -5.05664 v 4.445312 4.447266 h -3.92383 -3.92187 v -8.457031 -8.457032 h 8.97851 8.98047 v -5.05664 -5.056641 h -0.52344 -0.52148 v 4.533203 4.533203 h -3.92383 -3.92383 v -4.533203 -4.533203 h -0.60937 -0.61133 v 4.533203 4.533203 h -3.92383 -3.92187 v -4.533203 -4.533203 h -14.125 -14.12305 v 0.523437 0.523438 h 4.5332 4.53321 v 4.009766 4.009765 h -8.45508 -8.45703 v -4.533203 -4.533203 h -0.52149 -0.52148 l -0.0449,9.023437 -0.0469,9.023438 h -3.92188 -3.92382 l -0.0469,-4.490234 -0.0469,-4.490235 H 121.60938 108.0957 l 0.0469,-3.966797 0.0469,-3.966796 9.02344,-0.04492 9.02344,-0.04492 v -0.521485 -0.521484 h -9.58985 -9.58984 v 4.537109 4.53711 l -3.9668,-0.04687 -3.966793,-0.04687 -0.04492,-8.414063 -0.04492,-8.412109 h 17.525387 17.52539 v 4.445312 4.447266 h 0.52344 0.52149 v -4.447266 -4.445312 h 35.57226 35.57031 v 8.978516 8.980468 h 0.52344 0.52344 v -8.980468 -8.978516 h 4.00976 4.00977 v 4.445312 4.447266 h 4.9707 4.96875 v -0.523438 -0.523437 h -4.44726 -4.44531 v -3.923828 -3.921875 h 8.45703 8.45703 v 8.457031 8.455078 h -8.97852 -8.97656 l -0.0469,4.490235 -0.0449,4.490234 -4.49023,0.04687 -4.49024,0.04687 v 0.519531 0.519531 h 5.05664 5.05665 v -4.533203 -4.533203 h 3.92382 3.92188 v 4.533203 4.533203 h 0.52148 0.51953 l 0.0469,-4.488281 0.0469,-4.490234 4.48633,-0.04687 4.48633,-0.04687 0.0469,-4.486328 0.0469,-4.488281 h 3.92383 3.92187 l 0.0469,4.490234 0.0469,4.490234 h 0.51953 0.52149 v -5.05664 -5.056641 h -4.53516 -4.5332 v -3.923828 -3.921875 h 8.45703 8.45703 v 8.978516 8.980468 h 0.60938 0.61133 v -8.980468 -8.978516 h 8.45703 8.45703 v 8.458984 8.460938 l -3.9668,-0.04687 -3.9668,-0.04687 -0.0469,-4.490235 -0.0469,-4.490234 h -0.51953 -0.52148 v 5.056641 5.05664 h 4.53711 4.53711 l -0.0469,3.966797 -0.0469,3.966797 -4.49024,0.04687 -4.49023,0.04687 v 0.519531 0.519531 h 4.53516 4.53515 l -0.0449,12.947266 -0.0449,12.947266 -13.47071,0.04492 -13.46875,0.04492 v 0.521484 0.521484 h 4.44532 4.44726 v 3.923828 3.923828 h -4.44726 -4.44532 v 0.609376 0.611328 h 5.05665 5.05664 v -4.535157 -4.533203 h 8.45703 8.45703 v 8.457032 8.457031 h -4.01172 -4.00977 v -4.533203 -4.533204 h -0.52343 -0.52344 v 5.052735 5.054687 l 4.49023,0.04492 4.49024,0.04687 v 8.457031 8.457028 h -3.92383 -3.92188 l -0.0469,-4.490231 -0.0469,-4.490234 h -4.44335 -4.44336 v -4.533203 -4.533203 h -0.61133 -0.60938 v 5.05664 5.056641 h 4.53321 4.5332 v 4.011719 4.011721 l -12.94531,-0.0449 -12.94727,-0.0449 -0.0469,-3.966793 -0.0469,-3.966797 h 4.53711 4.53711 v -5.056641 -5.05664 h -0.52149 -0.51953 l -0.0469,4.490234 -0.0469,4.490235 -3.96679,0.04687 -3.9668,0.04688 V 74.464844 56.9375 h 13.51367 13.51367 v -5.056641 -5.05664 h -0.52343 -0.52344 v 4.533203 4.533203 h -8.45703 -8.45703 v -4.009766 -4.009765 h 4.53515 4.53321 v -4.970703 -4.96875 h -0.61133 -0.60938 v 4.445312 4.447266 h -3.92383 -3.92382 v -4.447266 -4.445312 h -0.52149 -0.52148 l -0.0449,8.935547 -0.0449,8.9375 -4.48632,0.04492 -4.48829,0.04687 -0.0449,4.488282 -0.0469,4.486328 -4.49024,0.04687 -4.49023,0.04492 v 5.054687 5.052734 h 0.52344 0.52343 v -4.533203 -4.533203 h 4.00977 4.00977 v 12.990235 12.990234 h -4.53321 -4.5332 v 0.523437 0.523438 h 4.5332 4.53321 v 8.98047 8.97851 h 5.05664 5.05664 v -0.52343 -0.52149 h -4.53321 -4.5332 v -3.92383 -3.92382 h 17.52344 17.52539 v 3.92382 3.92383 h -4.53516 -4.5332 v 0.51953 0.51954 l 4.49023,0.0469 4.49024,0.0469 0.0469,3.9668 0.0469,3.9668 h -4.53711 -4.53711 v 0.52344 0.52343 h 4.5332 4.53516 v 36.09375 36.09375 h 0.52148 0.52344 V 101.48828 10.730469 H 139.14062 Z m 54.0546871,9.066406 v 9.589844 9.589843 H 75.408203 88.921875 V 51.96875 64.960938 l -8.412109,-0.04492 -8.414063,-0.04492 -0.04687,-4.490235 -0.04492,-4.490234 h -0.521484 -0.519531 v 4.533203 4.533203 h -4.533203 -4.533204 v 8.980469 8.980469 h -4.447265 -4.445313 v 0.523437 0.523438 h 4.445313 4.447265 v 8.542968 8.544918 H 43.849609 25.802734 v 4.44532 4.44726 h -4.447265 -4.447266 v 0.52149 0.52343 h 22.494141 22.49414 v 12.99024 12.99023 h -4.445312 -4.445313 l -0.04492,13.55664 -0.04492,13.5586 -9.023438,0.0449 -9.023437,0.0449 v 4.44531 4.44336 h -8.980469 -8.980469 v 0.52344 0.52344 h 4.447266 4.445312 v 8.54492 8.54297 h -4.445312 -4.447266 v 8.98047 8.98047 H 12.375 7.8417969 v 90.75781 90.75781 H 139.14062 270.4375 V 295.38477 200.0918 h -4.5332 -4.53321 v -13.51368 -13.51171 h -0.52343 -0.52344 v 4.5332 4.5332 h -3.92383 -3.92187 v -8.45703 -8.45703 h 4.44531 4.44726 v -0.52344 -0.52148 h -4.44726 -4.44531 v -4.53516 -4.5332 h -0.61133 -0.60938 v 4.5332 4.53516 h -3.92383 -3.92382 v -9.06836 -9.06641 h -0.51954 -0.51953 l -0.0469,4.49024 -0.0469,4.49023 -3.96679,0.0469 -3.9668,0.0469 v -4.53711 -4.53711 h -0.52344 -0.52343 v 5.05274 5.05468 l 4.49023,0.0469 4.49023,0.0449 0.0469,4.49024 0.0469,4.49023 h 4.44336 4.44336 v 8.98047 8.98047 h 4.53321 4.5332 v 8.45508 8.45703 h -3.92383 -3.92187 v -4.44532 -4.44726 h -0.61133 -0.60938 v 9.5039 9.50196 h 0.60938 0.61133 v -4.44531 -4.44727 h 8.45703 8.45507 v 3.92383 3.92383 h -4.5332 -4.5332 v 0.51953 0.51953 l 4.49023,0.0469 4.49024,0.0469 0.0449,12.94726 0.0449,12.94532 h -4.01172 -4.01172 v -8.97852 -8.98047 h -8.98047 -8.98046 v -4.5332 -4.5332 h -0.51954 -0.51953 l -0.0469,4.48828 -0.0469,4.49023 -3.96679,0.0469 -3.9668,0.0469 v -8.45898 -8.46094 h 4.5332 4.53321 v -0.60938 -0.61132 h -5.05664 -5.05664 v 9.58984 9.5918 h 8.98046 8.98047 v 4.01172 4.00976 l -12.94726,-0.043 -12.94727,-0.0449 -0.043,-17.48047 -0.0449,-17.48047 h 9.06836 9.06641 v -0.51953 -0.52148 l -4.48828,-0.0469 -4.49024,-0.0449 -0.0469,-4.49023 -0.0469,-4.49024 h -0.51758 -0.51758 l -0.0449,4.49024 -0.0469,4.49023 -4.49024,0.0449 -4.49023,0.0469 v 4.44336 4.44336 h -4.44531 -4.44727 v 5.05664 5.05664 h 0.52344 0.52344 v -4.44531 -4.44727 h 3.92187 3.92383 v 12.99023 12.99024 h -3.92383 -3.92187 v -4.5332 -4.53321 h -0.52344 -0.52344 v 5.05664 5.05664 h 17.95899 17.96093 v 4.44727 4.44531 h 0.60938 0.61133 v -8.98047 -8.97851 h 3.92187 3.92383 v 8.97656 8.97656 l 4.49023,0.0469 4.49024,0.0469 0.0449,12.94531 0.0449,12.94727 h -4.53515 -4.53516 v 0.61133 0.60937 h 4.53516 4.53515 l -0.0449,12.94727 -0.0449,12.94531 -4.49024,0.0469 -4.49023,0.0469 v 0.51953 0.52149 h 4.53516 4.53515 l -0.0449,12.94531 -0.0449,12.94727 h -3.92383 -3.92383 l -0.0449,-9.02344 -0.0449,-9.02344 h -9.50196 -9.5 v 0.52344 0.52344 h 8.97852 8.98047 v 9.0664 9.06641 h 4.5332 4.5332 v 21.9707 21.9707 h -4.00976 -4.00977 v -4.44726 -4.44531 h -4.44726 -4.44531 v -4.00977 -4.01172 h 4.44531 4.44726 v -0.52344 -0.52148 h -5.05664 -5.05664 v 5.05664 5.05664 h 4.53321 4.5332 v 8.45508 8.45703 h -3.92383 -3.92187 v -4.5332 -4.53321 h -0.61133 -0.60938 v 4.53321 4.5332 h -4.44726 -4.44532 v 0.52344 0.52344 h 4.44532 4.44726 v 4.5332 4.5332 h 0.60938 0.61133 v -4.5332 -4.5332 h 4.44336 4.44335 l 0.0469,-4.49024 0.0449,-4.49023 h 3.92383 3.92383 v 8.45703 8.45703 l -4.49024,0.0469 -4.49023,0.0469 v 0.51953 0.51953 h 4.5332 4.5332 v 3.92383 3.92383 h -31.0371 -31.03711 v -3.92383 -3.92383 h 4.5332 4.53516 v -0.52148 -0.52149 l -9.02344,-0.0449 -9.02344,-0.0449 v -8.45703 -8.45703 h 3.92188 3.92382 l 0.0469,4.49023 0.0469,4.49024 h 0.51954 0.51953 v -8.98047 -8.98047 h 4.01171 4.00977 v 4.44726 4.44727 h 0.52344 0.52344 v -4.9707 -4.96875 h -5.05665 -5.05664 v 4.44531 4.44726 h -4.53515 -4.53321 v 9.58985 9.58984 h 4.53321 4.53515 v 3.92383 3.92383 h -8.45703 -8.45703 v -13.51367 -13.51368 h -0.61133 -0.60937 v 13.51368 13.51367 h -40.01758 -40.01758 v -3.92383 -3.92383 h 9.06836 9.06641 v -0.52148 -0.52149 l -9.02344,-0.0449 -9.02344,-0.0449 -0.0469,-3.9668 -0.0469,-3.96679 h 9.07032 9.07031 v -4.53321 -4.5332 h 3.92383 3.92187 v 4.5332 4.53321 h 0.52344 0.52344 v -5.05664 -5.05665 h -5.05664 -5.05665 v 4.53321 4.5332 h -8.97656 -8.97656 l -0.0469,4.49024 -0.0469,4.49023 -4.49023,0.0469 -4.490239,0.0469 v 0.51953 0.51953 h 4.535159 4.5332 v 3.92383 3.92383 H 89.53125 72.007812 v -3.92383 -3.92383 h 4.533204 4.535156 v -0.52344 -0.52148 h -5.056641 -5.05664 v 4.44531 4.44727 H 53.4375 35.912109 l 0.04492,-12.94727 0.04492,-12.94726 h 3.923828 3.921875 l 0.04492,9.02343 0.04687,9.02344 h 0.521485 0.521484 v -18.05078 -18.04883 l 3.966797,0.0469 3.966797,0.0469 0.04492,8.93555 0.04492,8.9375 h 0.521485 0.521484 v -4.44727 -4.44726 h 8.980469 8.978515 v -0.52149 -0.52343 h -8.978515 -8.980469 v -9.06836 -9.06641 h -0.519531 -0.521485 l -0.04687,4.49023 -0.04492,4.49024 -3.966797,0.0469 -3.966797,0.0469 v -4.53711 -4.53711 h -0.523438 -0.523437 v 13.51367 13.51367 h -8.457031 -8.457032 v -3.92382 -3.92383 h 4.447266 4.445312 v -9.58985 -9.58984 h -0.523437 -0.521484 v 9.06641 9.06836 h -3.923829 -3.923828 v -9.06836 -9.06641 h -0.609375 -0.611328 v 18.04688 18.04687 h -4.445312 -4.447266 v 0.52344 0.52344 h 4.447266 4.445312 v 4.5332 4.5332 h 0.611328 0.609375 v -9.0664 -9.06641 h 3.923828 3.923829 v 12.99023 12.98828 H 21.878906 8.8886719 v -3.92187 -3.92383 h 4.5332031 4.533203 v -0.51953 -0.52148 l -4.490234,-0.0449 -4.4902346,-0.0469 v -8.45703 -8.45703 l 4.4902346,-0.0469 4.490234,-0.0469 v -0.51953 -0.51954 H 13.421875 8.8886719 v -3.92382 -3.92383 h 4.5332031 4.533203 v -0.51953 -0.51953 l -4.490234,-0.0469 -4.4902346,-0.0469 -0.042969,-35.53125 -0.044922,-35.5293 3.9667972,0.0469 3.96875,0.0469 0.04297,18.00391 0.04492,18.00195 h 0.521485 0.523437 v -4.53321 -4.5332 h 3.923828 3.921875 v 4.5332 4.53321 h 0.611328 0.609375 v -5.05664 -5.05664 h -4.533203 -4.533203 v -8.45703 -8.45508 h 4.533203 4.533203 v -9.06836 -9.06641 h 3.923828 3.923829 v 9.06641 9.06836 h 4.533203 4.533203 v 3.92187 3.92383 h -9.066406 -9.06836 v 0.52344 0.52344 h 9.589844 9.591797 v -4.9668 -4.9668 l -4.490234,-0.0469 -4.490235,-0.0469 -0.04492,-9.02344 -0.04492,-9.02343 h -4.445312 -4.445313 v -3.92188 -3.92383 h 8.457032 8.457031 v 4.44532 4.44726 h 0.523437 0.523438 v -8.98047 -8.97851 h 4.009766 4.009765 v 4.5332 4.5332 h 0.523438 0.523437 v -4.5332 -4.5332 h 8.978516 8.978515 l 0.04492,-9.02539 0.04492,-9.02344 h 3.923828 3.921875 l 0.04687,9.02344 0.04492,9.02539 h 0.521485 0.521484 v -9.06836 -9.06641 h 3.921875 3.923828 v 4.5332 4.53321 h 5.054687 5.052735 l 0.04687,-4.49024 0.04687,-4.49023 h 3.921873 3.92383 v 8.45703 8.45703 l -9.023438,0.0449 -9.023437,0.0469 v 9.5 9.50195 h 0.611328 0.609375 v -4.44726 -4.44532 h 3.923828 3.921875 v 4.44336 4.44336 l 4.490239,0.0469 4.49023,0.0469 v 8.45508 8.45703 h -3.92383 -3.921873 l -0.04687,-4.49023 -0.04687,-4.48828 h -0.519531 -0.521485 v 5.05664 5.05664 h 5.056639 5.05469 l 0.0449,-9.02344 0.0449,-9.02344 h 3.92383 3.92383 l 0.0449,4.48828 0.0469,4.49024 h 0.52148 0.51953 v -5.05664 -5.05664 h -9.06836 -9.066404 v -4.53321 -4.5332 h -4.445312 -4.447266 v -3.92383 -3.92187 h 8.457031 8.457031 v 4.5332 4.5332 h 5.05664 5.05664 v -0.61132 -0.60938 h -4.5332 -4.53516 v -13.51367 -13.51367 h -5.05664 -5.056639 v 4.5332 4.53516 h -3.921875 -3.923828 v -4.53516 -4.5332 h -4.533203 -4.533203 v -4.44532 -4.44726 h -5.056641 -5.05664 v 0.52344 0.52343 h 4.533203 4.533203 v 3.92188 3.92383 h -4.533203 -4.533203 v 9.06836 9.06836 l -12.947266,-0.0449 -12.947266,-0.0449 -0.04687,-3.9668 -0.04687,-3.96679 h 4.53711 4.537109 v -0.52344 -0.52148 h -9.589844 -9.589843 v 0.52148 0.52344 h 4.533203 4.533203 v 8.45703 8.45703 h -8.457031 -8.457032 v -3.92383 -3.92187 h 4.447266 4.445312 v -0.52344 -0.52344 H 31.46875 27.021484 v -4.5332 -4.5332 h -0.609375 -0.611328 v 4.5332 4.5332 h -4.445312 -4.447266 v 0.52344 0.52344 h 4.447266 4.445312 v 17.52343 17.52344 H 21.878906 17.955078 V 276.8125 263.21289 h -0.521484 -0.521485 l -0.04492,9.02344 -0.04492,9.02344 -3.96875,0.0469 -3.9667972,0.0469 0.044922,-35.53125 0.042969,-35.5293 8.4140626,-0.0449 8.412109,-0.0469 v 4.01367 4.01172 h -4.445312 -4.447266 v 14.03516 14.03711 h 0.523438 0.523437 v -4.53321 -4.5332 h 4.533203 4.533203 v -0.52344 -0.52343 h -4.533203 -4.533203 v -3.92383 -3.92188 h 4.533203 4.533203 v -0.52343 -0.52344 h -4.533203 -4.533203 v -4.00977 -4.01172 h 4.533203 4.533203 v -4.53515 -4.53516 l 8.414063,0.0469 8.412109,0.0449 0.04687,4.48633 0.04687,4.48632 4.486328,0.0469 4.488282,0.0469 v 3.92382 3.92188 h -8.457032 -8.457031 l -0.04687,-4.48828 -0.04687,-4.49024 h -0.519531 -0.519531 v 5.05664 5.05664 h 4.533203 4.533203 v 3.92188 3.92383 h -4.533203 -4.533203 v 0.52343 0.52344 h 13.511718 13.513672 v 4.5332 4.53321 h 0.611328 0.609375 v -5.05664 -5.05664 h -9.066406 -9.066406 v -3.92383 -3.92188 h 9.066406 9.066406 v -0.52343 -0.52344 h -4.533203 -4.533203 v -4.5332 -4.53321 h -4.533203 -4.533203 v -4.5332 -4.53516 H 31.46875 17.955078 v -8.45508 -8.45703 h 3.923828 3.921875 v 4.53321 4.5332 h 13.601563 13.599609 v 4.44727 4.44531 h 4.447266 4.445312 v 4.5332 4.5332 h 13.513672 13.513672 v 4.53516 4.5332 h 5.056641 5.05664 v -5.05664 -5.05664 h -0.523437 -0.523438 v 4.53321 4.5332 h -3.921875 -3.923828 v -8.54492 -8.54688 l 8.41211,0.0469 8.414062,0.0449 0.0449,9.02344 0.0449,9.02343 h 0.52149 0.52148 v -4.53711 -4.53711 l 3.9668,0.0469 3.9668,0.0469 0.0449,8.9375 0.0469,8.93554 h 0.52149 0.52148 v -9.5039 -9.50196 h -4.53711 -4.53711 l 0.0469,-3.96679 0.0469,-3.9668 4.49024,-0.0469 4.49023,-0.0469 v -0.51953 -0.51953 h -4.5332 -4.53516 v -12.99024 -12.99219 h 8.45703 8.45703 v 4.01172 4.00977 h -4.44531 -4.44726 v 5.05664 5.05664 h 4.44726 4.44531 v 17.96094 17.95898 h 4.53321 4.5332 v 4.5332 4.53321 h 4.53711 4.53711 l -0.0469,3.96679 -0.0469,3.9668 -8.41211,0.0469 -8.41406,0.0449 v -4.53516 -4.53515 h -5.05664 -5.05664 v 5.05664 5.05664 h 0.52343 0.52344 v -4.53321 -4.53515 h 3.92188 3.92382 v 9.06836 9.0664 h 0.61133 0.60938 v -4.5332 -4.5332 h 3.92383 3.92187 v 8.97656 8.97656 l 4.49024,0.0469 4.49023,0.0469 0.0469,3.9668 0.0469,3.9668 h -8.45898 -8.46094 v -4.53321 -4.53515 h -0.60938 -0.61133 v 5.05664 5.05664 h 9.06641 9.06836 v 4.53515 4.53321 h 0.52344 0.52148 v -4.53321 -4.53515 h 3.92383 3.92383 v 12.99023 12.99024 h -3.92383 -3.92383 v -4.53321 -4.5332 h -0.52148 -0.52344 v 4.53711 4.53711 l -3.9668,-0.0469 -3.96679,-0.0469 -0.0469,-4.49023 -0.0469,-4.49024 h -8.97657 -8.97656 v -3.92383 -3.92187 h 8.97852 8.98047 v -0.52344 -0.52344 h -9.50196 -9.5039 v 4.44727 4.44531 h -9.06641 -9.068359 v 4.5332 4.53321 h -3.921875 -3.923828 v -4.53321 -4.5332 h -0.609375 -0.611328 v 4.5332 4.53321 h -4.445313 -4.447265 v 0.52343 0.52344 h 8.980469 8.978515 v 26.50391 26.5039 h -4.533203 -4.533203 v 4.53321 4.5332 h -3.923828 -3.921875 v -8.45703 -8.45703 h 4.533203 4.533203 v -5.05664 -5.05469 h -0.609375 -0.611328 v 4.5332 4.53321 h -3.923828 -3.921875 v -8.54493 -8.54296 h 4.533203 4.533203 v -0.52344 -0.52344 h -5.052734 -5.054688 l -0.04687,4.49023 -0.04687,4.49024 h -3.921875 -3.923828 l -0.04492,-8.41406 -0.04492,-8.41211 h 4.535157 4.535156 v -4.53321 -4.53515 h 3.921875 3.923828 v 4.53515 4.53321 h 0.611328 0.609375 v -5.05664 -5.05664 h -5.05664 -5.056641 v 4.44531 4.44726 H 67.039062 54.048828 v -8.45703 -8.45703 h 3.923828 3.921875 v 4.5332 4.53321 h 5.056641 5.054687 l 0.04492,-9.02344 0.04492,-9.02344 4.490235,-0.0449 4.490234,-0.0469 v -4.44336 -4.44336 h 4.533203 4.533203 v -5.05664 -5.05664 h -5.05664 -5.056641 v 0.52343 0.52149 h 4.447265 4.445313 v 4.01172 4.00976 h -4.445313 -4.447265 v 4.44727 4.44531 h -4.009766 -4.011719 v -4.44531 -4.44727 h -0.521484 -0.523437 v 13.51367 13.51368 h -3.923829 -3.923828 v -18.04688 -18.04687 h -0.609375 -0.611328 v 8.97851 8.98047 h -3.921875 -3.923828 v -12.99023 -12.99024 h 4.533203 4.533203 v -4.44531 -4.44727 h 8.457032 8.457031 v 3.92383 3.92188 h -4.533203 -4.533203 v 5.05664 5.05664 h 0.519531 0.519531 l 0.04687,-4.48828 0.04687,-4.49024 4.490235,-0.0469 4.490234,-0.0469 v -5.05273 -5.05469 h -9.591797 -9.589844 v 4.5332 4.53321 h -4.443359 -4.44336 l -0.04687,4.49023 -0.04492,4.49024 -4.490235,0.0469 -4.490234,0.0469 v 0.51757 0.51563 l 4.490234,0.0469 4.490235,0.0469 0.04492,8.93555 0.04492,8.9375 h 4.445313 4.443359 v 4.00976 4.00977 h -8.976562 -8.976563 l -0.04687,4.49023 -0.04687,4.49024 h -3.921875 -3.923828 l -0.04687,-4.49024 -0.04687,-4.49023 h -0.519531 -0.519531 v 8.98047 8.98046 h -8.980469 -8.980469 v 9.58985 9.58984 h 0.523438 0.523437 v -8.98047 -8.97851 H 31.46875 44.982422 v -0.61133 -0.60938 h -4.533203 -4.535157 v -3.92382 -3.92383 h 4.535157 4.533203 v -4.53516 -4.53711 l 3.966797,0.0469 3.966797,0.0469 0.04492,9.02344 0.04492,9.02344 h 8.978516 8.978516 v 8.45703 8.45703 h -3.923829 -3.923828 v -4.53516 -4.5332 h -0.609375 -0.611328 v 5.05469 5.05664 l 9.025391,0.0449 9.023437,0.0449 v 12.90235 12.90429 h -3.923828 -3.923828 l -0.04687,-4.49023 -0.04492,-4.49024 h -5.054687 -5.052735 v 4.53321 4.5332 h -4.447265 -4.447266 v 5.05664 5.05664 h 5.056641 5.05664 v -0.52344 -0.52148 h -4.533203 -4.533203 v -4.01172 -4.00976 h 4.533203 4.533203 v -4.53321 -4.5332 h 3.923828 3.923829 v 4.5332 4.53321 h 8.978515 8.980469 v 4.5332 4.5332 h 0.611328 0.609375 v -4.5332 -4.5332 h 4.447266 4.445312 v -0.52344 -0.52344 h -4.445312 -4.447266 v -4.00976 -4.00977 h 4.445313 4.445312 l 0.04492,-8.9375 0.04492,-8.93555 3.966793,-0.0469 3.9668,-0.0469 v 4.53711 4.53711 h 0.52344 0.52344 v -4.53711 -4.53711 l 3.96679,0.0469 3.9668,0.0469 0.0449,8.41211 0.0449,8.41406 h -4.53515 -4.53516 v 0.52344 0.52344 h 5.05664 5.05664 v -4.44727 -4.44531 h 12.99024 12.99023 v 4.44531 4.44727 h 0.52344 0.52344 v -4.44727 -4.44531 h 3.92187 3.92383 v 8.45508 8.45703 h -4.44531 -4.44727 v 0.52344 0.52344 h 4.44727 4.44531 v 4.00976 4.01172 h -8.98047 -8.97852 v 0.52148 0.52344 h 9.58985 9.58984 v -9.06836 -9.06836 l 8.41406,0.0449 8.41211,0.0449 v 8.45703 8.45703 h -3.92382 -3.92188 l -0.0469,-4.49023 -0.0469,-4.49024 h -0.51953 -0.52148 v 5.05664 5.05664 h 9.59179 9.58985 v -0.51953 -0.51953 l -4.49024,-0.0469 -4.49023,-0.0469 -0.0469,-3.9668 -0.0469,-3.96679 h 4.53711 4.53711 v -8.98047 -8.97852 h 8.97656 8.97656 l 0.0469,-4.49023 0.0469,-4.49024 4.49023,-0.0469 4.48829,-0.0469 v -0.51953 -0.51953 h -5.05664 -5.05665 v 4.5332 4.53321 h -3.92187 -3.92383 v -8.54493 -8.54492 l 12.94727,0.0449 12.94726,0.0449 0.0449,4.48828 0.0469,4.49023 h 0.51953 0.52149 v -4.5332 -4.5332 h 3.92187 3.92383 v 9.0664 9.06836 h 4.5332 4.53516 v 3.92188 3.92382 h -4.53516 -4.5332 v 4.53321 4.5332 h -4.44531 -4.44727 v 0.52344 0.52344 h 8.98242 8.98438 l -0.0469,3.96679 -0.0469,3.9668 -4.49024,0.0469 -4.49023,0.0469 v 0.51953 0.51953 h 9.58984 9.5918 v -0.51953 -0.51953 l -4.49023,-0.0469 -4.49024,-0.0469 -0.0469,-4.48633 -0.0469,-4.48828 -4.48633,-0.0449 -4.48633,-0.0469 v -3.92382 -3.92383 l 9.02344,-0.0449 9.02344,-0.0449 v -0.52148 -0.52149 h -4.53516 -4.5332 v -3.92382 -3.92188 h 4.5332 4.53516 v -0.52148 -0.52149 l -9.02344,-0.0469 -9.02344,-0.0449 v -3.92188 -3.92383 l 9.02344,-0.0449 9.02344,-0.0449 v -4.5332 -4.53125 h 8.97851 8.98047 v -0.52344 -0.52344 h -9.5 -9.5 l -0.0469,4.49023 -0.0469,4.49024 -3.96679,0.0469 -3.9668,0.0469 v -4.53711 -4.53711 h -0.52344 -0.52148 v 4.53711 4.53711 l -3.9668,-0.0469 -3.9668,-0.0469 -0.0469,-9.02344 -0.0449,-9.02344 h -0.52149 -0.52148 v 4.53321 4.5332 h -8.45703 -8.45703 v -8.45703 -8.45508 h 4.01171 4.00977 v 4.5332 4.53321 h 0.52344 0.52344 v -9.58985 -9.58984 h -0.52149 -0.51953 l -0.0469,4.48828 -0.0449,4.49024 h -3.92383 -3.92382 l -0.0469,-4.49024 -0.0449,-4.48828 h -5.05469 -5.05273 v 0.52148 0.52344 h 4.53515 4.53711 l -0.0469,3.9668 -0.0469,3.9668 -4.49023,0.0469 -4.48828,0.0469 v 0.51953 0.51953 h 4.5332 4.5332 v 3.92383 3.92382 h -9.0664 -9.06836 v 0.60938 0.61133 h 9.06836 9.0664 v 3.92383 3.92187 h -9.0664 -9.06836 v 9.06836 9.06641 h -4.44531 -4.44336 l -0.0449,8.93554 -0.0469,8.9375 -3.9668,0.0469 -3.96679,0.0469 v -4.53711 -4.53711 h -8.97852 -8.98047 v -4.44335 -4.44336 l -4.49023,-0.0469 -4.49024,-0.0469 -0.0469,-4.49024 -0.0449,-4.48828 h -0.51758 -0.51758 l -0.0469,4.48828 -0.0469,4.49024 h -3.92188 -3.92382 l -0.0449,-9.02344 -0.0449,-9.02344 h -0.52148 -0.52149 v 4.5332 4.53516 h -4.5332 -4.53516 v 0.52148 0.52344 h 4.53516 4.5332 v 4.01172 4.00977 h -8.45703 -8.45703 v -4.53125 -4.53321 l -9.02344,-0.0449 -9.023433,-0.0449 v -21.9707 -21.97071 l 17.480473,-0.043 17.48046,-0.0449 v 4.53516 4.5332 h 14.03516 14.03711 v -0.52344 -0.52148 h -4.44531 -4.44727 v -4.01172 -4.00976 h 4.44727 4.44531 v -0.52344 -0.52344 h -4.44531 -4.44727 v -3.92187 -3.92383 h 4.44727 4.44531 v -0.52344 -0.52344 h -4.44531 -4.44727 v -4.00976 -4.01172 h 4.44727 4.44531 v -0.52149 -0.52343 h -4.44531 -4.44727 v -4.53321 -4.53515 h -0.60937 -0.61133 v 4.53515 4.53321 h -3.92383 -3.92187 v -4.53321 -4.53515 h -4.53321 -4.53515 v -3.92188 -3.92383 h 4.53515 4.53321 v -0.60937 -0.61133 h -4.53321 -4.53515 v -3.92383 -3.92187 h 4.53515 4.53321 v -4.53321 -4.53515 h 4.5332 4.5332 v -0.52149 -0.52343 h -4.53711 -4.53711 l 0.0469,-3.9668 0.0469,-3.9668 8.41407,-0.0469 8.41211,-0.0449 v 4.53515 4.53516 h 4.5371 4.53711 l -0.0469,3.96679 -0.0469,3.9668 -4.49023,0.0469 -4.49023,0.0469 v 0.51953 0.52149 h 5.05664 5.05664 v -4.53711 -4.53711 l 3.96679,0.0469 3.9668,0.0469 0.0469,4.49023 0.0469,4.49024 h 5.05469 5.05273 v -0.52344 -0.52344 h -4.5332 -4.5332 v -4.53125 -4.5332 l -9.02344,-0.0449 -9.02344,-0.0449 v -3.92383 -3.92188 l 4.49024,-0.0469 4.48828,-0.0469 v -0.51953 -0.52148 h -4.53321 -4.5332 v -4.44532 -4.44726 h -0.52344 -0.52343 v 4.44726 4.44532 h -8.97852 -8.98047 v 4.53711 4.53711 l -3.9668,-0.0469 -3.96679,-0.0469 -0.0469,-4.49024 -0.0469,-4.49023 h -4.44336 -4.44336 V 218.13867 200.0918 h -4.53321 -4.5332 v -3.92188 -3.92383 h 4.5332 4.53321 v -9.58984 -9.5918 h -0.60938 -0.61133 v 4.53516 4.5332 h -3.92187 -3.92383 v -4.5332 -4.53516 h -4.5332 -4.5332 v -13.51172 -13.51367 h -5.05664 -5.056646 v 0.51953 0.51953 l 4.488286,0.0469 4.49023,0.0469 0.0469,3.96679 0.0469,3.9668 h -4.53516 -4.537106 v 5.05664 5.05664 h 0.519532 0.519531 l 0.04687,-4.49023 0.04687,-4.49024 3.966793,-0.0469 3.9668,-0.0469 v 8.98047 8.98047 l 4.49024,0.0469 4.49023,0.0469 v 3.92187 3.92383 l -9.02344,0.0449 -9.023436,0.0449 v 0.52148 0.52148 h 4.533206 4.5332 v 12.99024 12.99219 H 93.542969 80.029297 v 0.52148 0.52344 h 4.447265 4.445313 v 4.00976 4.01172 H 76.019531 63.115234 v -9.0664 -9.06836 h -0.609375 -0.609375 v 4.5332 4.53516 h -3.923828 -3.923828 v -4.53516 -4.5332 h -9.066406 -9.06836 v -8.98047 -8.97852 h -0.521484 -0.523437 v 8.97852 8.98047 h -3.923829 -3.923828 v -12.99024 -12.99023 h 4.447266 4.445312 v -4.44531 -4.44727 h 8.544922 8.542969 v 3.92383 3.92187 H 48.46875 43.935547 v 0.52344 0.52344 h 5.056641 5.05664 v -4.44531 -4.44727 h 4.533203 4.533203 v -0.52344 -0.52343 h -4.533203 -4.533203 v -12.99024 -12.99023 h 3.923828 3.923828 v 8.98047 8.98046 h 0.609375 0.609375 V 142.63867 129.125 h 4.447266 4.447266 v -0.52344 -0.52344 H 67.5625 63.115234 v -4.00976 -4.00977 h 4.447266 4.447266 v -0.52343 -0.52344 H 67.5625 63.115234 v -4.5332 -4.53321 H 45.068359 27.021484 v -3.92383 -3.92382 H 45.068359 63.115234 V 93.03125 83.964844 H 67.5625 72.009766 V 83.441406 82.917969 H 67.5625 63.115234 v -3.923828 -3.923829 h 12.904297 12.902344 v 8.980469 8.980469 h 4.533203 4.535156 v 4.533203 4.533207 h 0.521485 0.523437 v -5.056644 -5.056641 h -4.445312 -4.447266 v -8.457031 -8.455078 h 3.923828 3.923828 v 4.445312 4.447266 h 0.521485 0.523437 v -8.980469 -8.980469 h 4.533204 4.53516 v -0.523437 -0.521485 h -5.05664 -5.056646 v 4.445313 4.447265 h -17.4375 -17.4375 V 69.927734 66.003906 H 76.628906 90.142578 V 61.470703 56.9375 h 8.976563 8.978519 l 0.0449,-4.490234 0.0469,-4.490235 h 3.92383 3.92383 l 0.0449,4.490235 0.0469,4.490234 h 0.52148 0.51953 v -4.533203 -4.533203 h 8.45703 8.45703 v 12.990234 12.990234 h -3.92382 -3.92383 v -8.980468 -8.980469 h -0.60938 -0.61133 v 8.980469 8.980468 h -3.92187 -3.92383 v -4.447265 -4.445313 h -0.52344 -0.52343 v 8.978516 8.980469 h -4.00977 -4.00976 v -4.533203 -4.533204 h -0.52344 -0.52344 v 5.052735 5.054687 l 4.49024,0.04492 4.49023,0.04687 0.0449,4.490235 0.0469,4.490234 h 4.44336 4.44335 v 4.533203 4.533207 h 4.53321 4.53515 v 3.92382 3.92383 h -4.53515 -4.53321 v 4.53321 4.5332 h -8.45898 -8.46094 l 0.0469,-3.9668 0.0469,-3.9668 4.49024,-0.0469 4.49023,-0.0469 v -4.9629 -4.96289 l -4.49023,-0.0469 -4.49024,-0.0469 -0.0469,-4.490231 -0.0449,-4.490234 h -0.52149 -0.51953 v 5.056641 5.056644 h 4.5332 4.53321 v 3.92382 3.92383 h -9.06641 -9.066406 v 4.53321 4.5332 h -3.923828 -3.923828 v -4.5332 -4.53321 h -4.533203 -4.533203 v -3.92383 -3.92382 h 4.533203 4.533203 v -0.52149 -0.52344 h -4.533203 -4.533203 v -9.068355 -9.066406 h -0.519531 -0.521485 l -0.04687,4.490234 -0.04492,4.490235 -4.490234,0.04687 -4.490234,0.04492 v 0.517578 0.517579 l 4.490234,0.04687 4.490234,0.04687 v 3.921875 3.923824 l -4.490234,0.0469 -4.490234,0.0469 v 4.96485 4.96679 h 0.523437 0.523438 v -4.44531 -4.44726 h 4.009765 4.009766 v 4.44726 4.44531 h 4.447265 4.445313 v 4.53321 4.53515 h 5.054687 5.052735 l 0.04687,-4.49023 0.04687,-4.49024 h 3.923833 3.92187 l 0.0469,4.49024 0.0469,4.49023 h 9.58789 9.58594 v -4.53515 -4.53321 h 3.92383 3.92382 v 12.99024 12.99023 h -4.53515 -4.53321 v 0.61133 0.60938 h 4.53321 4.53515 v 4.44726 4.44531 h 0.52149 0.52344 v -23.01562 -23.01563 h -4.44532 -4.44726 v -4.535152 -4.533203 h -4.53321 -4.5332 v -8.457031 -8.457032 h 13.51367 13.51368 v -0.609374 -0.609376 h -4.53516 -4.53516 l 0.0449,-12.947265 0.0449,-12.947266 9.02343,-0.04492 9.02344,-0.04492 v -4.445313 -4.445313 h 8.45703 8.45703 v 3.923829 3.923828 h -4.5332 -4.53515 v 0.523437 0.521485 h 5.05664 5.05664 v -9.501953 -9.503907 h -0.51954 -0.51953 l -0.0469,4.490235 -0.0469,4.490234 -9.02343,0.04492 -9.02344,0.04492 v 4.445312 4.445313 h -12.90235 -12.90429 v -4.447266 -4.445312 h -0.60938 -0.61133 v 4.445312 4.447266 h -8.45703 -8.45507 v -4.447266 -4.445312 h -0.52344 -0.52344 v 8.978515 8.980469 H 98.599609 90.142578 V 46.910156 37.931641 H 76.628906 63.115234 v -4.011719 -4.009766 h 8.980469 8.980469 V 25.376953 20.84375 H 85 88.921875 v 4.533203 4.533203 h 0.611328 0.609375 v -5.05664 -5.056641 h -5.052734 -5.054688 l -0.04687,4.490234 -0.04492,4.490235 -8.414062,0.04492 -8.414063,0.04492 v -4.535157 -4.535156 h -0.609375 z"
         id="path10263"
         inkscape:connector-curvature="0" />
    </g>
  </g>
</svg>
